<svg width="128" height="128" viewBox="0 0 128 128" fill="none" xmlns="http://www.w3.org/2000/svg">
  <defs>
    <linearGradient id="grad128" x1="0%" y1="0%" x2="100%" y2="100%">
      <stop offset="0%" style="stop-color:#667eea;stop-opacity:1" />
      <stop offset="50%" style="stop-color:#6b73ff;stop-opacity:1" />
      <stop offset="100%" style="stop-color:#764ba2;stop-opacity:1" />
    </linearGradient>
    <filter id="shadow128" x="-20%" y="-20%" width="140%" height="140%">
      <feDropShadow dx="0" dy="8" stdDeviation="8" flood-color="rgba(0,0,0,0.3)"/>
    </filter>
    <filter id="lockShadow" x="-20%" y="-20%" width="140%" height="140%">
      <feDropShadow dx="0" dy="2" stdDeviation="4" flood-color="rgba(102,126,234,0.4)"/>
    </filter>
    <radialGradient id="highlight" cx="30%" cy="30%" r="70%">
      <stop offset="0%" style="stop-color:rgba(255,255,255,0.3);stop-opacity:1" />
      <stop offset="100%" style="stop-color:rgba(255,255,255,0);stop-opacity:0" />
    </radialGradient>
  </defs>
  
  <!-- Main background -->
  <rect x="8" y="8" width="112" height="112" rx="24" fill="url(#grad128)" filter="url(#shadow128)"/>
  <rect x="8" y="8" width="112" height="112" rx="24" fill="url(#highlight)"/>
  
  <!-- Lock body -->
  <rect x="32" y="48" width="64" height="56" rx="8" fill="white" fill-opacity="0.97" filter="url(#lockShadow)"/>
  
  <!-- Lock shackle -->
  <rect x="48" y="32" width="32" height="24" rx="16" fill="none" stroke="white" stroke-width="8" stroke-opacity="0.97"/>
  
  <!-- Keyhole -->
  <circle cx="64" cy="72" r="6" fill="url(#grad128)"/>
  <rect x="61" y="76" width="6" height="12" rx="3" fill="url(#grad128)"/>
  
  <!-- Password strength bars (decorative) -->
  <rect x="40" y="58" width="8" height="3" rx="1.5" fill="#e2e8f0" fill-opacity="0.8"/>
  <rect x="40" y="63" width="12" height="3" rx="1.5" fill="#e2e8f0" fill-opacity="0.8"/>
  <rect x="40" y="68" width="6" height="3" rx="1.5" fill="#e2e8f0" fill-opacity="0.8"/>
  <rect x="40" y="86" width="10" height="3" rx="1.5" fill="#e2e8f0" fill-opacity="0.8"/>
  <rect x="40" y="91" width="7" height="3" rx="1.5" fill="#e2e8f0" fill-opacity="0.8"/>
  
  <rect x="80" y="58" width="8" height="3" rx="1.5" fill="#e2e8f0" fill-opacity="0.8"/>
  <rect x="76" y="63" width="12" height="3" rx="1.5" fill="#e2e8f0" fill-opacity="0.8"/>
  <rect x="82" y="68" width="6" height="3" rx="1.5" fill="#e2e8f0" fill-opacity="0.8"/>
  <rect x="78" y="86" width="10" height="3" rx="1.5" fill="#e2e8f0" fill-opacity="0.8"/>
  <rect x="81" y="91" width="7" height="3" rx="1.5" fill="#e2e8f0" fill-opacity="0.8"/>
  
  <!-- Decorative sparkles -->
  <g fill="white" fill-opacity="0.6">
    <circle cx="24" cy="24" r="2"/>
    <circle cx="104" cy="32" r="2"/>
    <circle cx="16" cy="64" r="1.5"/>
    <circle cx="112" cy="80" r="1.5"/>
    <circle cx="20" cy="104" r="2"/>
    <circle cx="96" cy="112" r="1.5"/>
  </g>
  
  <!-- Additional glow effect -->
  <rect x="32" y="48" width="64" height="56" rx="8" fill="none" stroke="rgba(255,255,255,0.3)" stroke-width="1"/>
</svg>