<svg width="48" height="48" viewBox="0 0 48 48" fill="none" xmlns="http://www.w3.org/2000/svg">
  <defs>
    <linearGradient id="grad48" x1="0%" y1="0%" x2="100%" y2="100%">
      <stop offset="0%" style="stop-color:#667eea;stop-opacity:1" />
      <stop offset="100%" style="stop-color:#764ba2;stop-opacity:1" />
    </linearGradient>
    <filter id="shadow48" x="-20%" y="-20%" width="140%" height="140%">
      <feDropShadow dx="0" dy="3" stdDeviation="3" flood-color="rgba(0,0,0,0.25)"/>
    </filter>
    <filter id="innerShadow" x="-50%" y="-50%" width="200%" height="200%">
      <feFlood flood-color="rgba(102,126,234,0.3)"/>
      <feComposite in="SourceGraphic"/>
    </filter>
  </defs>
  <rect x="3" y="3" width="42" height="42" rx="9" fill="url(#grad48)" filter="url(#shadow48)"/>
  <rect x="12" y="18" width="24" height="21" rx="3" fill="white" fill-opacity="0.96"/>
  <rect x="18" y="12" width="12" height="9" rx="4.5" fill="none" stroke="white" stroke-width="3" stroke-opacity="0.96"/>
  <circle cx="24" cy="27" r="2.5" fill="url(#grad48)"/>
  <rect x="22.8" y="29" width="2.4" height="4.5" rx="1.2" fill="url(#grad48)"/>
  
  <!-- Password strength indicators -->
  <rect x="15" y="22" width="3" height="1.5" rx="0.75" fill="#e2e8f0" fill-opacity="0.7"/>
  <rect x="15" y="24.5" width="4" height="1.5" rx="0.75" fill="#e2e8f0" fill-opacity="0.7"/>
  <rect x="15" y="32" width="2" height="1.5" rx="0.75" fill="#e2e8f0" fill-opacity="0.7"/>
  <rect x="30" y="22" width="3" height="1.5" rx="0.75" fill="#e2e8f0" fill-opacity="0.7"/>
  <rect x="29" y="24.5" width="4" height="1.5" rx="0.75" fill="#e2e8f0" fill-opacity="0.7"/>
  <rect x="31" y="32" width="2" height="1.5" rx="0.75" fill="#e2e8f0" fill-opacity="0.7"/>
  
  <!-- Decorative elements -->
  <circle cx="24" cy="8" r="1" fill="white" fill-opacity="0.3"/>
  <circle cx="40" cy="24" r="1" fill="white" fill-opacity="0.3"/>
  <circle cx="8" cy="24" r="1" fill="white" fill-opacity="0.3"/>
</svg>